<svg id="Capa_1" data-name="Capa 1" xmlns="http://www.w3.org/2000/svg" viewBox="0 0 212.11 186.07"><title>embajada_svg</title><path d="M230.29,132.52c-5.25-3.4-10.48-6.84-15.71-10.27a2.43,2.43,0,0,0-1.43-.41H172.68c-.3,0-.6,0-1,0V104.3H160.47c-.33,0-.66,0-1,0,0-.21-.07-.35-.1-.49a59.75,59.75,0,0,0-5.47-16.45A45.35,45.35,0,0,0,142.16,72.4a31.38,31.38,0,0,0-19.11-7.47,6.12,6.12,0,0,1-.64-.1c-.17-1.35-.1-19.73.09-20.39h28c2.32,0,4.64,0,7,0V24h-35.6V64.85c-.35,0-.63.07-.91.08A29.84,29.84,0,0,0,108,68.42,38.92,38.92,0,0,0,95.15,79.54,54.92,54.92,0,0,0,85.67,99.8c-.36,1.46-.65,2.93-1,4.5H73.52l-1,.06v17.49H35.19a1.83,1.83,0,0,0-1.18.38c-1.55,1.15-3.12,2.29-4.68,3.43l-10.39,7.59v47.95H61.62v12.05H74.53c0,2.54,0,5,0,7.45H83c.93,0,1.85,0,2.86,0V210h72.91c0-3.11,0-6.19,0-9.35h7.87c.87,0,1.74,0,2.67,0v-7.42h13.09c.32,0,.65,0,1,0v-8c0-1.3,0-2.6,0-4H231v-1q0-23.1,0-46.18A1.5,1.5,0,0,0,230.29,132.52ZM92.44,177.15H83.15V140.07c.72-.18,9.17-.24,10.42-.09C93.75,140.63,92.68,175.87,92.44,177.15Zm18.45-27.93c-.06,3.1-.2,6.19-.3,9.29s-.21,6.19-.31,9.29-.19,6.18-.28,9.33h-7.73c-.21-.65-1.38-36.1-1.2-37.18h10C111.18,143.06,110.94,146.14,110.89,149.22Zm16.39,27.93h-7.87c-.4-12.4-.79-24.75-1.18-37.17h10.22C128.06,152.36,127.67,164.71,127.28,177.15Zm17.28,0H136.7q-.6-18.57-1.19-37.06a90,90,0,0,1,10.23-.08C145.35,152.39,145,164.74,144.56,177.14Zm19.24,0c-3.26.08-6.5.06-9.82,0-.39-12.44-.79-24.78-1.18-37.25h11Z" transform="translate(-18.94 -23.97)"/></svg>